<svg width="24" height="24" viewBox="0 0 24 24" fill="none" xmlns="http://www.w3.org/2000/svg">
  <path class="WindowText" fill="Black" d="M20 4H4C2.3 4 1 5.3 1 7V16C1 17.7 2.3 19 4 19H11C12.9 19 14.7 19.9 15.8 21.4L17 23L17.6 20.5C17.8 19.6 18.6 19 19.5 19H20C21.7 19 23 17.7 23 16V7C23 5.3 21.7 4 20 4ZM22 16C22 17.1 21.1 18 20 18H19.6C18.2 18 17 18.9 16.7 20.3L16.6 20.7C15.2 19 13.2 18 11 18H4C2.9 18 2 17.1 2 16V7C2 5.9 2.9 5 4 5H20C21.1 5 22 5.9 22 7V16ZM5 8H17V9H5V8ZM5 11H13V12H5V11Z" />
</svg>
