<svg width="20" height="20" viewBox="0 0 20 20" fill="none" xmlns="http://www.w3.org/2000/svg">
<path d="M5.10818 1C2.50961 1 0.510704 3.4 1.11037 5.9C2.60955 12.3 7.70675 17.4 14.0033 18.9C14.3031 19 14.603 19 14.9028 19C17.1016 19 18.9006 17.2 18.9006 14.9V14.2L15.9023 13.2L14.8029 14.3C14.4031 14.7 13.9033 15 13.3037 15C13.1038 15 12.804 15 12.6041 14.9C9.40582 13.6 6.40746 10.6 5.20812 7.5C4.90829 6.8 5.10818 5.9 5.70785 5.3L6.80725 4.2L5.80779 1.2H5.10818V1ZM5.10818 0H5.80779H6.50741L6.7073 0.7L7.70675 3.7L8.00659 4.3L7.60681 4.7L6.50741 5.8C6.10763 6.2 6.00768 6.6 6.10763 7C7.30697 9.9 10.0055 12.7 13.0038 13.9C13.1038 13.9 13.2037 14 13.3037 14C13.6035 14 13.8034 13.9 14.0033 13.7L15.1027 12.6L15.7024 12L16.302 12.2L19.3004 13.2L20 13.5V14.2V14.9C20 17.7 17.7013 20 14.9028 20C14.503 20 14.1032 20 13.8034 19.9C7.00714 18.3 1.71004 13 0.110924 6.2C-0.188911 4.7 0.110924 3.2 1.11037 1.9C2.10983 0.7 3.50906 0 5.10818 0Z" fill="#3C3C3C"/>
</svg>