<svg width="16" height="16" viewBox="0 0 16 16" fill="none" xmlns="http://www.w3.org/2000/svg">
<path d="M8.97299 0.993789C9.27039 0.993789 9.66691 1.19255 10.0634 1.78882C10.9556 2.98137 9.36952 5.76398 9.56778 6.36025C9.56778 6.45963 9.76605 6.45963 9.96431 6.45963C10.5591 6.45963 11.7487 6.16149 12.74 6.16149C13.1365 6.16149 13.4339 6.16149 13.7313 6.36025C14.7226 6.75776 14.9209 7.75155 14.4252 8.4472C14.8218 8.84472 15.2183 9.44099 14.4252 10.5342C14.8218 12.2236 13.8305 12.5217 13.8305 12.5217C13.8305 12.5217 14.5244 14.6087 11.4513 14.8075C11.1539 14.8075 10.7574 14.8075 10.46 14.8075C8.77473 14.8075 6.79209 14.5093 6.29643 14.5093C5.30511 14.5093 3.719 9.04348 4.41292 8.54658C5.00772 8.24845 5.00772 7.95031 5.50338 7.45342C6.99035 5.86335 8.27907 3.57764 8.3782 2.48447C8.47733 1.68944 8.27907 1.29193 8.6756 1.09317C8.77473 0.993789 8.87386 0.993789 8.97299 0.993789ZM2.43029 8.9441C2.72768 8.9441 2.92595 8.9441 3.12421 9.04348C3.32247 9.04348 3.4216 9.24224 3.4216 9.44099C3.4216 10.5342 3.61987 12.2236 4.41292 14.0124C4.51206 14.3106 4.31379 14.6087 4.0164 14.6087C3.61987 14.6087 3.22334 14.6087 2.92595 14.6087C2.33115 14.6087 1.93463 14.5093 1.63723 14.3106C0.645912 13.3168 0.745043 9.83851 1.33983 9.24224C1.63723 9.04348 2.03376 8.9441 2.43029 8.9441ZM8.97299 0C8.77473 0 8.57646 0 8.27907 0.0993789C7.38688 0.496894 7.38688 1.3913 7.38688 1.78882C7.38688 1.8882 7.38688 2.08696 7.38688 2.28571C7.38688 2.98137 6.29643 5.06832 4.80945 6.75776C4.51206 6.95652 4.41292 7.25466 4.21466 7.35404C4.11553 7.65217 4.0164 7.75155 3.81813 7.85093C3.719 7.95031 3.61987 8.04969 3.52074 8.14907C3.4216 8.14907 3.4216 8.14907 3.32247 8.04969C3.02508 8.04969 2.72768 7.95031 2.43029 7.95031C1.73636 7.95031 1.14157 8.24845 0.745044 8.64596C-0.246275 9.63975 -0.345407 13.8137 1.04244 15.1056C1.5381 15.6025 2.33115 15.7019 3.02508 15.7019C3.32247 15.7019 3.719 15.7019 4.11553 15.7019H4.21466C4.61119 15.7019 5.00772 15.5031 5.30511 15.1056C5.80077 15.7019 6.1973 15.7019 6.39556 15.7019C6.49469 15.7019 6.89122 15.7019 7.28775 15.8012C8.17994 15.9006 9.36952 16 10.5591 16C10.9556 16 11.3522 16 11.6496 16C13.0374 15.9006 14.0287 15.4037 14.6235 14.6087C14.9209 14.1118 15.02 13.6149 15.02 13.118C15.4166 12.7205 15.714 11.9255 15.6148 10.8323C16.1105 10.0373 16.1105 9.14286 15.714 8.4472C15.8131 8.04969 15.8131 7.55279 15.714 7.15528C15.5157 6.45963 15.02 5.86335 14.3261 5.56522C13.9296 5.36646 13.5331 5.36646 12.9383 5.36646C12.3435 5.36646 11.6496 5.46584 11.0548 5.56522C11.0548 5.56522 11.0548 5.56522 10.9556 5.56522C10.9556 5.56522 10.9556 5.56522 10.9556 5.46584C11.3522 4.17391 11.8478 2.48447 11.0548 1.29193C10.46 0.695652 9.86518 0 8.97299 0Z" fill="#FCA90A"/>
</svg>