<?xml version="1.0" encoding="utf-8"?>
<!-- Generator: Adobe Illustrator 25.4.1, SVG Export Plug-In . SVG Version: 6.00 Build 0)  -->
<svg version="1.1" id="Layer_1" xmlns="http://www.w3.org/2000/svg" xmlns:xlink="http://www.w3.org/1999/xlink" x="0px" y="0px"
	 viewBox="0 0 32 32" style="enable-background:new 0 0 32 32;" xml:space="preserve">
<style type="text/css">
	.st0{fill:#FFFFFE;}
	.st1{fill:#FF7200;}
</style>
<g>
	<g>
		<path class="st0" d="M30,15c0-6.6-6.3-12-14-12S2,8.4,2,15c0,6.6,6.3,12,14,12c1.5,0,2.9-0.2,4.3-0.6c1.1,1.2,2,2.7,2.4,4.4
			c0,0.1,0,0.1,0,0.2c1.8-1.6,2.7-4.2,2.4-6.9C28.1,21.9,30,18.7,30,15z"/>
	</g>
	<path class="st1" d="M20.5,6.8c-4,2-7.3,5.6-9.3,10.1c0.6-4.1,2.1-7.8,4.2-10.9C9.6,6.3,5,10.2,5,15c0,5,4.9,9,11,9s11-4,11-9
		C27,11.4,24.3,8.2,20.5,6.8z"/>
</g>
</svg>
