<svg width="16" height="16" viewBox="0 0 16 16" fill="none" xmlns="http://www.w3.org/2000/svg">
  <path d="M7.02701 0.993789C6.72961 0.993789 6.33309 1.19255 5.93656 1.78882C5.04437 2.98137 6.63048 5.76398 6.43222 6.36025C6.43222 6.45963 6.23395 6.45963 6.03569 6.45963C5.4409 6.45963 4.25132 6.16149 3.26 6.16149C2.86347 6.16149 2.56607 6.16149 2.26868 6.36025C1.27736 6.75776 1.07909 7.75155 1.57475 8.4472C1.17823 8.84472 0.781699 9.44099 1.57475 10.5342C1.17823 12.2236 2.16955 12.5217 2.16955 12.5217C2.16955 12.5217 1.47562 14.6087 4.54871 14.8075C4.84611 14.8075 5.24263 14.8075 5.54003 14.8075C7.22527 14.8075 9.20791 14.5093 9.70357 14.5093C10.6949 14.5093 12.281 9.04348 11.5871 8.54658C10.9923 8.24845 10.9923 7.95031 10.4966 7.45342C9.00965 5.86335 7.72093 3.57764 7.6218 2.48447C7.52267 1.68944 7.72093 1.29193 7.3244 1.09317C7.22527 0.993789 7.12614 0.993789 7.02701 0.993789ZM13.5697 8.9441C13.2723 8.9441 13.0741 8.9441 12.8758 9.04348C12.6775 9.04348 12.5784 9.24224 12.5784 9.44099C12.5784 10.5342 12.3801 12.2236 11.5871 14.0124C11.4879 14.3106 11.6862 14.6087 11.9836 14.6087C12.3801 14.6087 12.7767 14.6087 13.0741 14.6087C13.6688 14.6087 14.0654 14.5093 14.3628 14.3106C15.3541 13.3168 15.255 9.83851 14.6602 9.24224C14.3628 9.04348 13.9662 8.9441 13.5697 8.9441ZM7.02701 0C7.22527 0 7.42354 0 7.72093 0.0993789C8.61312 0.496894 8.61312 1.3913 8.61312 1.78882C8.61312 1.8882 8.61312 2.08696 8.61312 2.28571C8.61312 2.98137 9.70357 5.06832 11.1905 6.75776C11.4879 6.95652 11.5871 7.25466 11.7853 7.35404C11.8845 7.65217 11.9836 7.75155 12.1819 7.85093C12.281 7.95031 12.3801 8.04969 12.4793 8.14907C12.5784 8.14907 12.5784 8.14907 12.6775 8.04969C12.9749 8.04969 13.2723 7.95031 13.5697 7.95031C14.2636 7.95031 14.8584 8.24845 15.255 8.64596C16.2463 9.63975 16.3454 13.8137 14.9576 15.1056C14.4619 15.6025 13.6688 15.7019 12.9749 15.7019C12.6775 15.7019 12.281 15.7019 11.8845 15.7019H11.7853C11.3888 15.7019 10.9923 15.5031 10.6949 15.1056C10.1992 15.7019 9.8027 15.7019 9.60444 15.7019C9.50531 15.7019 9.10878 15.7019 8.71225 15.8012C7.82006 15.9006 6.63048 16 5.4409 16C5.04437 16 4.64784 16 4.35045 16C2.9626 15.9006 1.97128 15.4037 1.37649 14.6087C1.07909 14.1118 0.979963 13.6149 0.979963 13.118C0.583436 12.7205 0.286039 11.9255 0.385172 10.8323C-0.110489 10.0373 -0.110487 9.14286 0.28604 8.4472C0.186909 8.04969 0.186909 7.55279 0.28604 7.15528C0.484304 6.45963 0.979963 5.86335 1.67389 5.56522C2.07041 5.36646 2.46694 5.36646 3.06173 5.36646C3.65652 5.36646 4.35045 5.46584 4.94524 5.56522C4.94524 5.56522 4.94524 5.56522 5.04437 5.56522C5.04437 5.56522 5.04437 5.56522 5.04437 5.46584C4.64784 4.17391 4.15218 2.48447 4.94524 1.29193C5.54003 0.695652 6.13482 0 7.02701 0Z" fill="#FCA90A"/>
</svg>