<svg width="24" height="24" viewBox="0 0 24 24" fill="none" xmlns="http://www.w3.org/2000/svg">
  <path class="WindowText" fill="Black" d="M7.10818 3C4.50961 3 2.5107 5.4 3.11037 7.9C4.60955 14.3 9.70675 19.4 16.0033 20.9C16.3031 21 16.603 21 16.9028 21C19.1016 21 20.9006 19.2 20.9006 16.9V16.2L17.9023 15.2L16.8029 16.3C16.4031 16.7 15.9033 17 15.3037 17C15.1038 17 14.804 17 14.6041 16.9C11.4058 15.6 8.40746 12.6 7.20812 9.5C6.90829 8.8 7.10818 7.9 7.70785 7.3L8.80725 6.2L7.80779 3.2H7.10818V3ZM7.10818 2H7.80779H8.50741L8.7073 2.7L9.70675 5.7L10.0066 6.3L9.60681 6.7L8.50741 7.8C8.10763 8.2 8.00768 8.6 8.10763 9C9.30697 11.9 12.0055 14.7 15.0038 15.9C15.1038 15.9 15.2037 16 15.3037 16C15.6035 16 15.8034 15.9 16.0033 15.7L17.1027 14.6L17.7024 14L18.302 14.2L21.3004 15.2L22 15.5V16.2V16.9C22 19.7 19.7013 22 16.9028 22C16.503 22 16.1032 22 15.8034 21.9C9.00714 20.3 3.71004 15 2.11092 8.2C1.81109 6.7 2.11092 5.2 3.11037 3.9C4.10983 2.7 5.50906 2 7.10818 2Z" />
</svg>
