<svg width="24" height="24" viewBox="0 0 24 24" fill="none" xmlns="http://www.w3.org/2000/svg">
  <path class="WindowText" fill="Black" d="M12 13C14.8 13 17 9.9 17 7.1C17 5.8 16.5 4.6 15.7 3.7L15 4L15.6 3.5C14.7 2.6 13.4 2 12 2C9.2 2 7 4.3 7 7.1C7 9.9 9.2 13 12 13ZM12 3C12.7 3 13.4 3.2 14 3.5L9.8 7L15.3 4.9C15.8 5.6 16 6.3 16 7.1C16 9.3 14.2 12 12 12C9.8 12 8 9.3 8 7.1C8 4.8 9.8 3 12 3ZM20.2 18.4C19.4 16.9 18.1 15.7 16.5 15L14 14V17L10 14L7.3 14.9C5.2 15.6 3.6 17.2 2.9 19.3L2 22H22L20.2 18.4ZM3.8 19.6C4.4 17.8 5.8 16.4 7.6 15.8L9.8 15.1L13.4 17.8L15 19V17V15.5L16.2 16C17.6 16.5 18.7 17.6 19.3 18.9L20.4 21.1H3.4L3.8 19.6Z"/>
</svg>