<svg width="20" height="20" viewBox="0 0 20 20" fill="none" xmlns="http://www.w3.org/2000/svg">
<path d="M10 11C12.8 11 15 7.9 15 5.1C15 3.8 14.5 2.6 13.7 1.7L13 2L13.6 1.5C12.7 0.6 11.4 0 10 0C7.2 0 5 2.3 5 5.1C5 7.9 7.2 11 10 11ZM10 1C10.7 1 11.4 1.2 12 1.5L7.8 5L13.3 2.9C13.8 3.6 14 4.3 14 5.1C14 7.3 12.2 10 10 10C7.8 10 6 7.3 6 5.1C6 2.8 7.8 1 10 1ZM18.2 16.4C17.4 14.9 16.1 13.7 14.5 13L12 12V15L8 12L5.3 12.9C3.2 13.6 1.6 15.2 0.9 17.3L0 20H20L18.2 16.4ZM1.8 17.6C2.4 15.8 3.8 14.4 5.6 13.8L7.8 13.1L11.4 15.8L13 17V15V13.5L14.2 14C15.6 14.5 16.7 15.6 17.3 16.9L18.4 19.1H1.4L1.8 17.6Z" fill="#3C3C3C"/>
</svg>